<svg width="176" height="114" viewBox="0 0 176 114" fill="none" xmlns="http://www.w3.org/2000/svg">
<path d="M155.269 28.6055C89.3728 94.0933 8.7414 22.866 8.7414 22.866C8.7414 22.866 7.31541 22.6418 3.10856 27.9355C-1.09795 33.2292 0.183765 34.4712 0.183765 34.4712C42.042 131.518 162.742 95.2957 170.894 43.6189L170.413 33.3574L167.491 23.5819L165.36 22.4066C159.853 27.5587 162.619 28.0421 162.619 28.0421L155.269 28.6055Z" fill="#F6BB42"/>
<path d="M7.28567 27.6336C7.36567 26.4503 6.86891 25.3632 6.03848 24.6397C5.26378 25.3847 4.29694 26.4397 3.10856 27.9355C2.40087 28.8274 1.85044 29.5994 1.42035 30.275C1.97317 30.7023 2.65181 30.9748 3.3995 31.0254C5.41079 31.1615 7.1496 29.6418 7.28567 27.6336Z" fill="#434A54"/>
<path d="M149.73 27.0832C101.034 106.203 11.5725 59.1927 11.5725 59.1927C11.5725 59.1927 10.1329 59.3103 7.28567 65.4399C4.43848 71.5725 5.97695 72.4806 5.97695 72.4806C69.4318 157.004 178.271 93.4735 174.072 41.327C174.072 41.327 172.56 33.2688 171.198 31.4633C169.831 29.6579 175.039 7.59626 175.039 7.59626L156.717 0C156.717 11.5464 155.729 22.4117 154.019 23.5307C152.31 24.6527 149.73 27.0832 149.73 27.0832Z" fill="#FFCE54"/>
<path d="M6.13454 68.2925C6.58309 68.4901 7.07745 68.6023 7.59814 68.6023C9.61182 68.6023 11.244 66.9677 11.244 64.9537C11.244 63.538 10.4375 62.3147 9.26208 61.7137C8.70378 62.6033 8.04429 63.805 7.28566 65.4395C6.76771 66.5565 6.39643 67.4966 6.13454 68.2925Z" fill="#434A54"/>
<path d="M156.717 0.000335693C156.717 11.5467 155.729 22.412 154.019 23.531C162.075 23.9878 171.198 31.4633 171.198 31.4633C169.83 29.6579 175.039 7.59626 175.039 7.59626L156.717 0.000335693Z" fill="#F6BB42"/>
<g opacity="0.2">
<path d="M171.198 31.4633C169.831 29.6579 175.039 7.59625 175.039 7.59625L166.861 4.2041C165.434 10.625 162.903 22.8442 163.902 24.169C165.269 25.9772 166.775 34.0326 166.775 34.0326C170.658 82.2662 77.8401 140.236 13.6717 81.7804C77.8264 152.019 178.105 91.4221 174.072 41.327C174.072 41.327 172.56 33.2688 171.198 31.4633Z" fill="white"/>
</g>
</svg>
