<svg width="561" height="429" viewBox="0 0 561 429" fill="none" xmlns="http://www.w3.org/2000/svg">
<path d="M497.637 156.138C286.44 366.026 28.0162 137.743 28.0162 137.743C28.0162 137.743 23.4459 137.024 9.96294 153.991C-3.51892 170.957 0.588968 174.938 0.588968 174.938C134.745 485.974 521.589 369.88 547.714 204.256L546.174 171.368L536.808 140.038L529.978 136.27C512.328 152.783 521.195 154.332 521.195 154.332L497.637 156.138Z" fill="#F6BB42"/>
<path d="M23.3506 153.023C23.607 149.231 22.0149 145.746 19.3534 143.428C16.8704 145.815 13.7717 149.197 9.96296 153.991C7.6948 156.849 5.93067 159.324 4.55225 161.489C6.32404 162.858 8.49907 163.732 10.8954 163.894C17.3416 164.33 22.9145 159.459 23.3506 153.023Z" fill="#434A54"/>
<path d="M479.883 151.259C323.813 404.839 37.0899 254.17 37.0899 254.17C37.0899 254.17 32.4758 254.547 23.3505 274.192C14.2253 293.847 19.1561 296.758 19.1561 296.758C222.529 567.654 571.358 364.04 557.901 196.91C557.901 196.91 553.056 171.084 548.691 165.297C544.308 159.511 561 88.8034 561 88.8034L502.277 64.4574C502.277 101.463 499.11 136.287 493.631 139.873C488.153 143.469 479.883 151.259 479.883 151.259Z" fill="#FFCE54"/>
<path d="M19.6613 283.335C21.0989 283.968 22.6833 284.328 24.3521 284.328C30.8059 284.328 36.0369 279.089 36.0369 272.634C36.0369 268.097 33.4521 264.176 29.685 262.25C27.8957 265.101 25.782 268.952 23.3506 274.191C21.6905 277.771 20.5006 280.784 19.6613 283.335Z" fill="#434A54"/>
<path d="M502.277 64.4585C502.277 101.465 499.11 136.288 493.631 139.874C519.449 141.338 548.69 165.297 548.69 165.297C544.307 159.511 560.999 88.8034 560.999 88.8034L502.277 64.4585Z" fill="#F6BB42"/>
<g opacity="0.2">
<path d="M548.69 165.297C544.308 159.511 561 88.8034 561 88.8034L534.788 77.9316C530.217 98.5105 522.103 137.673 525.304 141.919C529.686 147.714 534.514 173.532 534.514 173.532C546.96 328.121 249.477 513.913 43.8176 326.564C249.434 551.679 570.826 357.465 557.9 196.91C557.9 196.91 553.055 171.084 548.69 165.297Z" fill="white"/>
</g>
<path d="M93.9423 100.02C98.3076 102.379 101.777 105.905 104.351 110.596C106.925 115.287 107.188 119.528 105.141 123.318C103.139 127.026 99.5744 129.783 94.4485 131.59C89.3671 133.314 83.9493 133.1 78.1951 130.948C75.7108 130.031 72.1625 128.326 67.5501 125.833C64.6733 133.326 63.9519 138.898 65.386 142.547C65.7201 143.899 66.5873 144.953 67.9875 145.71C73.0941 148.47 78.2449 149.178 83.4399 147.835C88.6793 146.409 92.0404 146.096 93.5229 146.898C94.1819 147.254 94.8365 148.406 95.4867 150.354C96.137 152.303 96.1729 153.812 95.5944 154.884C94.4373 157.026 90.1739 158.713 82.8042 159.946C79.4744 160.595 75.8062 160.688 71.7996 160.225C67.9198 159.725 64.5797 158.718 61.7793 157.204C54.6135 153.331 51.8343 145.867 53.4418 134.814C54.371 127.971 56.6825 121.13 60.3763 114.291C64.0701 107.452 68.8582 102.429 74.7406 99.2213C80.6231 96.0138 87.0236 96.2799 93.9423 100.02ZM89.9539 108.882C86.8241 107.19 83.1904 107.514 79.0529 109.855C77.5617 110.646 75.2661 113.025 72.1661 116.991C83.6972 123.224 90.9981 123.498 94.0689 117.812C95.938 114.352 94.5664 111.375 89.9539 108.882Z" fill="currentColor"/>
<path d="M109.587 145.001C111.996 139.207 115.703 134.562 120.706 131.065C125.796 127.605 131.203 125.696 136.928 125.341C142.689 124.898 147.817 125.612 152.311 127.483C156.806 129.354 160.159 131.409 162.371 133.648C164.706 135.837 165.495 137.839 164.74 139.655C164.021 141.385 162.765 142.941 160.973 144.326C159.303 145.659 157.646 145.984 156.004 145.301C155.399 145.049 153.911 143.872 151.541 141.769C149.293 139.616 147.78 138.378 147.002 138.054C141.989 135.968 136.937 136.046 131.847 138.289C126.792 140.446 123.007 144.551 120.489 150.603C117.972 156.656 117.035 161.592 117.678 165.41C118.443 169.177 121.203 172.05 125.957 174.029C127.858 174.82 131.549 175.088 137.029 174.833C142.632 174.528 145.995 174.609 147.119 175.077C148.242 175.544 149.006 176.268 149.41 177.248C149.814 178.227 149.8 179.236 149.368 180.273C148.505 182.349 146.248 183.996 142.598 185.215C139.07 186.384 135.037 186.938 130.5 186.875C125.999 186.726 122.193 186.004 119.081 184.709C112.166 181.831 107.853 176.841 106.143 169.738C104.519 162.672 105.667 154.426 109.587 145.001Z" fill="currentColor"/>
<path d="M195.748 142.52C202.23 144.369 206.656 148.992 209.025 156.387C211.485 163.809 211.47 171.888 208.98 180.624C206.515 189.27 202.249 196.039 196.182 200.931C190.204 205.848 183.66 207.292 176.547 205.263C169.525 203.259 164.739 198.534 162.189 191.087C159.665 183.55 159.494 175.953 161.676 168.298C164.475 158.481 168.689 151.21 174.319 146.486C180.322 141.479 187.465 140.157 195.748 142.52ZM190.969 153.135C187.188 152.057 183.517 153.152 179.956 156.421C176.396 159.69 173.987 163.532 172.729 167.945C170.777 174.79 170.639 180.399 172.313 184.772C173.987 189.145 176.534 191.819 179.955 192.795C186.077 194.542 190.751 193.002 193.976 188.177C195.415 185.86 196.674 182.811 197.752 179.028C201.963 164.258 199.702 155.627 190.969 153.135Z" fill="currentColor"/>
<path d="M218.717 211.626L224.788 154.893C225.025 153.13 225.822 151.772 227.178 150.821C228.534 149.869 229.815 149.475 231.021 149.637C233.99 150.037 235.538 151.521 235.665 154.089C235.699 156.645 235.535 159.269 235.173 161.961C241.07 156.045 247.776 153.593 255.291 154.605C266.796 156.153 270.783 170.061 267.25 196.329C266.925 198.742 266.432 202.409 265.77 207.328C265.121 212.155 264.369 215.644 263.512 217.797C262.488 220.494 260.306 221.618 256.966 221.168C254.739 220.868 253.826 219.234 254.225 216.263L255.413 208.485C256.861 197.718 257.476 190.336 257.258 186.338C257.145 182.259 256.92 179.016 256.583 176.608C255.68 171.383 253.465 168.534 249.939 168.059C245.3 167.435 241.828 168.668 239.523 171.76C236.995 175.105 235.215 179.213 234.182 184.082C232.371 192.627 230.817 201.726 229.519 211.379C229.269 213.235 228.373 214.627 226.832 215.553C225.29 216.48 223.545 216.812 221.597 216.549C219.277 216.237 218.317 214.596 218.717 211.626Z" fill="currentColor"/>
<path d="M305.549 158.121C312.29 158.131 317.809 161.37 322.106 167.838C326.497 174.306 328.687 182.083 328.674 191.167C328.661 200.158 326.404 207.834 321.901 214.197C317.492 220.559 311.59 223.735 304.194 223.725C296.892 223.714 290.998 220.475 286.513 214.007C282.029 207.445 279.792 200.183 279.803 192.223C279.818 182.014 281.889 173.869 286.016 167.787C290.425 161.331 296.936 158.109 305.549 158.121ZM303.848 169.639C299.916 169.633 296.683 171.689 294.15 175.806C291.616 179.923 290.347 184.277 290.34 188.866C290.33 195.983 291.727 201.417 294.53 205.168C297.334 208.918 300.514 210.795 304.071 210.8C310.438 210.809 314.514 208.052 316.3 202.529C317.053 199.908 317.432 196.63 317.438 192.697C317.459 177.337 312.929 169.651 303.848 169.639Z" fill="currentColor"/>
<path d="M348.958 223.946C346.582 224.476 344.87 223.467 343.822 220.918C339.705 202.454 334.94 186.245 329.526 172.292C329.119 170.463 329.392 168.675 330.345 166.927C331.389 165.159 332.734 164.091 334.378 163.724C336.115 163.337 337.608 164.011 338.858 165.747C341.24 160.514 345.264 157.265 350.929 156.001C358.148 154.39 364.496 156.62 369.974 162.69C373.075 155.089 378.372 150.453 385.865 148.781C393.449 147.088 399.786 148.841 404.878 154.037C408.181 157.235 411.017 161.783 413.388 167.683C415.759 173.583 418.198 182.155 420.705 193.398C421.683 197.786 421.991 201.316 421.627 203.988C421.243 206.568 419.59 208.185 416.666 208.837C414.29 209.367 412.766 208.124 412.093 205.108L408.683 187.877C404.097 167.31 396.458 158.219 385.768 160.605C382.387 161.359 380.276 163.078 379.435 165.76C378.514 168.941 378.263 172.115 378.681 175.284C379.539 180.85 380.467 185.873 381.466 190.352L385.899 210.233C386.225 211.696 385.769 213.093 384.531 214.425C383.294 215.756 381.898 216.596 380.345 216.942C378.334 217.391 376.76 216.351 375.62 213.822L369.703 185.348C367.461 175.293 364.374 169.409 360.443 167.696C358.533 166.874 355.888 166.841 352.507 167.595C349.218 168.329 347.026 170.114 345.931 172.949C344.928 175.764 345.038 179.913 346.261 185.398L352.77 210.717C354.523 218.578 353.252 222.988 348.958 223.946Z" fill="currentColor"/>
<path d="M449.994 121.591C451.044 120.976 452.266 120.747 453.662 120.907C455.138 121.018 456.136 121.519 456.657 122.407C458.029 124.751 462.027 139.449 468.65 166.503C475.273 193.557 479.651 212.701 481.782 223.935C482.333 226.543 481.841 228.296 480.306 229.196C478.771 230.096 477.228 230.24 475.677 229.63C474.173 229.1 472.806 227.785 471.576 225.684C470.345 223.583 468.72 217.752 466.7 208.189C464.808 198.661 463.506 192.64 462.793 190.127C458.786 187.916 442.021 174.948 412.499 151.222C412.101 150.913 411.713 150.435 411.334 149.788C410.955 149.142 410.943 148.01 411.297 146.391C411.651 144.772 412.676 143.466 414.372 142.471C416.069 141.477 417.939 141.521 419.983 142.602C422.817 144.848 427.657 148.85 434.501 154.607C441.299 160.284 446.33 164.336 449.597 166.763C452.944 169.143 456.281 171.691 459.609 174.408C458.515 169.948 456.147 161.458 452.503 148.94C448.813 136.34 446.72 129.155 446.225 127.383C445.506 125.416 446.763 123.485 449.994 121.591Z" fill="currentColor"/>
<path d="M135.439 3.3386C136.908 -0.0800948 139.783 -0.873257 144.066 0.959117C146.036 1.80201 146.678 3.49329 145.992 6.03298L137.729 25.2632C136.187 28.8528 134.687 32.4608 133.23 36.087C135.164 36.3072 137.458 36.9853 140.113 38.1214C148.421 41.6762 153.651 47.2024 155.803 54.7001C157.955 62.1978 157.232 70.1346 153.633 78.5104C150.034 86.8862 144.288 92.8256 136.394 96.3286C128.624 99.7828 120.542 99.7142 112.148 96.1227C103.755 92.5313 100.568 88.3852 102.588 83.6845C104.644 78.8983 109.566 66.7374 117.351 47.2019C125.26 27.6175 131.289 12.9964 135.439 3.3386ZM143.652 55.7236C141.597 52.0112 138.856 49.4221 135.431 47.9562C133.546 47.1499 131.472 46.6672 129.209 46.5081C126.711 53.7363 121.625 66.2818 113.949 84.1445C115.185 85.2803 116.573 86.178 118.115 86.8377C121.455 88.2669 125.328 88.4569 129.733 87.4076C136.17 86.1144 140.894 81.9637 143.905 74.9554C146.954 67.8616 146.869 61.451 143.652 55.7236Z" fill="currentColor"/>
<path d="M211.661 62.6787C215.592 63.8423 216.563 67.7674 214.576 74.4539C214.364 75.1671 214.138 75.9249 213.9 76.7273L210.849 86.0091C209.885 88.9247 208.979 91.8089 208.131 94.6618L201.157 125.48C200.494 127.709 197.885 128.149 193.328 126.8C193.06 126.721 192.39 126.522 191.318 126.205C190.335 125.914 189.74 125.301 189.532 124.367C189.413 123.458 189.66 122.465 190.272 121.385C190.974 120.332 191.269 119.012 191.157 117.427C185.749 120.579 179.65 121.15 172.86 119.14C160.263 115.411 156.853 103.829 162.63 84.3938C165.837 73.6062 170.272 66.0437 175.936 61.7063C181.689 57.3954 188.362 56.3639 195.956 58.6119C199.53 59.6697 202.918 61.3517 206.121 63.6577C207.759 62.3967 209.606 62.0704 211.661 62.6787ZM194.106 70.7224C189.013 69.2149 184.779 69.562 181.403 71.7635C178.027 73.9651 175.173 78.9886 172.84 86.8341C168.918 100.029 170.53 107.684 177.678 109.8C179.554 110.355 181.861 110.116 184.598 109.084C187.424 108.077 189.602 106.637 191.131 104.761C194.26 100.45 196.672 95.4408 198.369 89.735C200.065 84.0292 200.582 79.672 199.922 76.6634C199.35 73.6813 197.411 71.7009 194.106 70.7224Z" fill="currentColor"/>
<path d="M218.72 127.284L225.544 71.0415C225.804 69.2938 226.615 67.957 227.978 67.0309C229.341 66.1049 230.621 65.7307 231.82 65.9085C234.769 66.346 236.29 67.8407 236.381 70.3926C236.379 72.9309 236.18 75.5337 235.783 78.2012C241.733 72.4088 248.441 70.0664 255.908 71.1739C267.338 72.8693 271.114 86.7326 267.236 112.764C266.88 115.155 266.339 118.789 265.612 123.664C264.9 128.447 264.103 131.901 263.221 134.027C262.164 136.69 259.977 137.776 256.659 137.284C254.447 136.956 253.56 135.32 253.998 132.376L255.287 124.67C256.877 114 257.591 106.679 257.429 102.706C257.373 98.6555 257.193 95.4324 256.891 93.0371C256.063 87.8376 253.899 84.9781 250.396 84.4585C245.787 83.7749 242.314 84.952 239.977 87.9899C237.415 91.2764 235.586 95.3298 234.492 100.15C232.572 108.609 230.9 117.621 229.475 127.187C229.201 129.027 228.29 130.396 226.743 131.295C225.196 132.194 223.455 132.499 221.519 132.212C219.215 131.871 218.282 130.228 218.72 127.284Z" fill="currentColor"/>
<path d="M320.294 75.3177C324.394 75.3819 326.389 78.9008 326.28 85.8744C326.268 86.6183 326.256 87.4086 326.242 88.2454L325.809 98.0042C325.668 101.071 325.574 104.092 325.527 107.068L327.128 138.621C327.091 140.946 324.697 142.071 319.945 141.997C319.666 141.992 318.967 141.981 317.849 141.964C316.824 141.948 316.085 141.518 315.632 140.673C315.272 139.831 315.242 138.807 315.541 137.603C315.932 136.4 315.86 135.05 315.325 133.554C310.967 138.043 305.247 140.232 298.166 140.121C285.027 139.915 278.618 129.677 278.936 109.407C279.113 98.1566 281.344 89.6816 285.627 83.9824C290.004 78.2846 296.153 75.4977 304.073 75.6217C307.8 75.6801 311.517 76.3893 315.223 77.7494C316.461 76.0947 318.151 75.2841 320.294 75.3177ZM305.559 87.7821C300.248 87.6989 296.264 89.1711 293.607 92.1987C290.949 95.2262 289.556 100.831 289.428 109.014C289.211 122.775 292.83 129.714 300.285 129.831C302.241 129.861 304.398 129.011 306.755 127.281C309.206 125.553 310.915 123.58 311.881 121.363C313.731 116.369 314.702 110.897 314.796 104.947C314.889 98.9957 314.212 94.6604 312.763 91.9406C311.408 89.2222 309.007 87.8361 305.559 87.7821Z" fill="currentColor"/>
<path d="M343.598 135.714L333.79 79.9124C333.532 78.1645 333.92 76.6503 334.955 75.3698C335.99 74.0893 337.107 73.3608 338.306 73.1843C341.256 72.7498 343.145 73.7406 343.973 76.1566C344.709 78.5862 345.275 81.135 345.669 83.8029C349.682 76.5379 355.422 72.3555 362.889 71.2557C374.321 69.5721 381.962 81.7478 385.812 107.783C386.166 110.175 386.704 113.809 387.425 118.684C388.132 123.468 388.373 127.005 388.146 129.294C387.909 132.149 386.131 133.821 382.812 134.31C380.6 134.636 379.276 133.327 378.84 130.383L377.836 122.635C376.257 111.963 374.814 104.75 373.505 100.994C372.274 97.1336 371.166 94.1008 370.181 91.8959C367.879 87.1589 364.976 85.0484 361.473 85.5644C356.863 86.2433 353.881 88.3744 352.527 91.9579C351.03 95.8444 350.457 100.253 350.81 105.183C351.43 113.834 352.447 122.943 353.862 132.511C354.135 134.35 353.661 135.924 352.441 137.232C351.222 138.539 349.644 139.336 347.708 139.621C345.403 139.96 344.033 138.658 343.598 135.714Z" fill="currentColor"/>
<path d="M417.81 55.3845C421.638 53.9187 424.804 56.4417 427.308 62.9533C427.575 63.6479 427.858 64.3859 428.159 65.1672L431.403 74.3835C432.418 77.2819 433.459 80.1203 434.527 82.8986L447.802 111.582C448.636 113.752 446.835 115.687 442.398 117.386C442.137 117.486 441.484 117.736 440.44 118.135C439.483 118.502 438.637 118.378 437.901 117.763C437.253 117.115 436.842 116.176 436.669 114.948C436.583 113.686 436.012 112.46 434.956 111.271C432.59 117.057 428.1 121.217 421.488 123.748C409.22 128.445 399.448 121.33 392.17 102.403C388.131 91.8979 387.034 83.2042 388.879 76.3222C390.812 69.4068 395.476 64.5334 402.871 61.7018C406.351 60.3693 410.065 59.6446 414.013 59.5276C414.543 57.5317 415.809 56.1507 417.81 55.3845ZM408.794 72.4324C403.834 74.3312 400.687 77.1796 399.353 80.9775C398.018 84.7753 398.82 90.4944 401.758 98.1347C406.698 110.984 412.649 116.077 419.609 113.412C421.437 112.712 423.12 111.121 424.661 108.639C426.289 106.123 427.138 103.657 427.206 101.24C427.057 95.9184 425.914 90.4795 423.777 84.9229C421.641 79.3663 419.392 75.5956 417.032 73.6108C414.759 71.5926 412.013 71.1999 408.794 72.4324Z" fill="currentColor"/>
</svg>
